<svg xmlns="http://www.w3.org/2000/svg" viewBox="0 0 24 24">
  <path fill="#2496ED" d="M13.983 11.078h2.119a.186.186 0 00.186-.185V9.006a.186.186 0 00-.186-.186h-2.119a.185.185 0 00-.185.185v1.888c0 .102.083.185.185.185m-2.954-5.43h2.119a.186.186 0 00.186-.186V3.574a.186.186 0 00-.186-.185h-2.119a.185.185 0 00-.185.185v1.888c0 .102.083.185.185.185m0 2.716h2.119a.186.186 0 00.186-.186V6.29a.186.186 0 00-.186-.185h-2.119a.185.185 0 00-.185.185v1.887c0 .102.083.185.185.185m-2.93 0h2.12a.186.186 0 00.184-.186V6.29a.185.185 0 00-.185-.185H8.1a.185.185 0 00-.185.185v1.887c0 .102.083.185.185.185m-2.964 0h2.119a.186.186 0 00.185-.186V6.29a.185.185 0 00-.185-.185H5.136a.186.186 0 00-.186.185v1.887c0 .102.084.185.186.185m5.893 2.715h2.119a.186.186 0 00.186-.185V9.006a.186.186 0 00-.186-.186h-2.119a.185.185 0 00-.185.185v1.888c0 .102.082.185.185.185m-2.93 0h2.12a.185.185 0 00.184-.185V9.006a.185.185 0 00-.184-.186h-2.12a.185.185 0 00-.184.185v1.888c0 .102.083.185.185.185m-2.964 0h2.119a.185.185 0 00.185-.185V9.006a.185.185 0 00-.184-.186H5.136a.186.186 0 00-.186.186v1.887c0 .102.084.185.186.185m-2.929 0h2.12a.185.185 0 00.184-.185V9.006a.185.185 0 00-.184-.186h-2.12a.185.185 0 00-.184.185v1.888c0 .102.082.185.185.185M23.763 9.89c-.065-.051-.643-.51-1.249-.938-.379-.267-.75-.53-1.113-.785a1.933 1.933 0 00-2.095-.012c-.505.32-.98.7-1.434 1.147-.229-.12-.463-.231-.701-.33-.05-.022-.101-.037-.151-.052-.028-.01-.055-.016-.083-.022-.266-.09-.54-.15-.818-.176-.114-.012-.228-.013-.342-.006-.088.005-.175.012-.262.025-.109.013-.217.033-.324.056a4.48 4.48 0 00-.66.21c-.054.025-.109.047-.162.074-.285.139-.56.302-.817.484-.013.01-.027.018-.04.028-.178.127-.35.266-.512.413-.044.041-.087.083-.129.126-.43.437-.785.937-1.045 1.487-.103.217-.188.441-.257.67-.012.035-.02.07-.03.105-.014.048-.028.096-.04.145-.078.312-.12.634-.122.963-.002.267.026.53.08.785.008.04.018.08.028.119.01.041.021.081.033.121.092.31.226.608.398.884.034.055.067.11.105.163.082.12.172.236.267.348.046.053.093.105.142.156.556.585 1.254 1.016 2.031 1.238.04.011.079.02.119.03.029.007.057.016.085.022.645.16 1.319.163 1.97.027.012-.002.024-.006.036-.01.047-.01.094-.02.141-.031.083-.02.167-.045.249-.073.041-.013.083-.027.124-.042.073-.027.145-.057.216-.088.038-.017.077-.033.115-.052.144-.067.284-.142.418-.221.022-.013.045-.025.066-.04.132-.084.26-.174.384-.27.016-.012.031-.025.047-.037l.031-.025.03-.025c.324-.268.61-.575.848-.913.063-.09.12-.181.174-.274.045-.077.088-.155.128-.234.232-.459.376-.963.413-1.49.004-.065.005-.131.005-.197v-.027c-.002-.488-.088-.956-.24-1.393"/>
</svg>