<svg xmlns="http://www.w3.org/2000/svg" viewBox="0 0 128 128">
  <path fill="#000" d="M118 39c-1.7-7-6.3-12.8-12.7-16-1.8-4.5-4.9-8.3-8.9-10.9-3.4-2.2-7.4-3.5-11.6-3.5-.7 0-1.5 0-2.2.1C79.8 3.2 72.2 0 64 0S48.2 3.2 45.4 8.7c-.7-.1-1.5-.1-2.2-.1-4.2 0-8.2 1.3-11.6 3.5-4 2.6-7.1 6.4-8.9 10.9-6.4 3.2-11 9-12.7 16C5.3 41.6 5.3 48.3 10 53c-1.2 2.2-2 4.7-2.3 7.4-.2 2.3 0 4.7.6 6.9 2.3 8.5 11 13.7 19.4 11.4.9-.2 1.7-.6 2.5-1 1.5 6.4 6 11.5 12.1 13.5 1.6 5.3 5.5 9.7 10.7 11.7 2.8 1.1 5.8 1.7 9 1.7s6.2-.6 9-1.7c5.2-2 9.1-6.4 10.7-11.7 6.1-2 10.6-7.1 12.1-13.5.8.4 1.6.8 2.5 1 8.4 2.3 17.1-2.9 19.4-11.4.6-2.2.8-4.6.6-6.9-.3-2.6-1.1-5.1-2.3-7.4 4.7-4.7 4.7-11.4 0-14z"/>
  <style>@media (prefers-color-scheme: dark) { path { fill: #fff; } }</style>
</svg>