<svg xmlns="http://www.w3.org/2000/svg" viewBox="0 0 24 24">
  <path fill="#38bdf8" d="M12.001 10.2c-1.98 0-3.6-1.62-3.6-3.6 0-1.98 1.62-3.6 3.6-3.6s3.6 1.62 3.6 3.6c0 1.98-1.62 3.6-3.6 3.6zm6 3.6c1.98 0 3.6 1.62 3.6 3.6 0 1.98-1.62 3.6-3.6 3.6s-3.6-1.62-3.6-3.6c0-1.98 1.62-3.6 3.6-3.6zm-12 0c1.98 0 3.6 1.62 3.6 3.6 0 1.98-1.62 3.6-3.6 3.6s-3.6-1.62-3.6-3.6c0-1.98 1.62-3.6 3.6-3.6z"/>
  <path fill="#38bdf8" d="M18.5 0C13.5 0 11 5 11 8.5 11 11 9 12 6 12 3 12 1 7 1 7H0c0 0 1 8 6 8 3.5 0 6-3.5 6-7.5 0-2 1.5-3.5 4-3.5 2 0 3.5 1.5 3.5 3 0 2.5-1.5 5-5 5H14c0 0 1.5 7 7.5 7 3 0 5.5-2 5.5-5.5C27 6.5 24 0 18.5 0z"/>
</svg>